<?xml version="1.0" encoding="utf-8"?>
<!-- Generator: Adobe Illustrator 22.1.0, SVG Export Plug-In . SVG Version: 6.00 Build 0)  -->
<svg version="1.1" id="Layer_1" xmlns="http://www.w3.org/2000/svg" xmlns:xlink="http://www.w3.org/1999/xlink" x="0px" y="0px"
	 viewBox="0 0 370 30" style="enable-background:new 0 0 370 30;" xml:space="preserve">
<style type="text/css">
	.st0{fill:#FFFFFF;}
</style>
<g>
	<g>
		<path class="st0" d="M7.9536,25.9443v-1.1904l0.0698-0.2471l5.0342-12.7319h8.1094l-2.9072,7.4683h2.6406
			c1.3101,0,1.8169-0.2627,1.9102-0.418l0.106-0.1768l0.0552-0.04c0.1943-0.3232,0.8228-1.6172,2.8252-6.7271
			c0.541-1.2188,0.5972-1.5234,0.6016-1.5542l-0.0005-0.064c-0.0073-0.0024-0.0146-0.0049-0.0229-0.0073H14.6987l-0.2979-0.4351
			c-0.2544-0.3716-0.7563-1.2334-2.1748-4.4136L11.5991,4h19.6611l0.0527,0.0059c3.21,0.3442,3.8838,1.8726,3.8838,3.0942v0.8901
			c0,0.4868-0.2134,1.5132-2.7627,7.5649c-2.5049,6.645-3.5503,8.2368-4.21,8.7808c-1.0239,1.0674-2.2051,1.6084-3.5127,1.6084
			H7.9536z"/>
		<path d="M31.2066,5c1.9941,0.2138,2.9903,0.9127,2.9903,2.1001v0.8901c0,0.5372-0.8953,2.9294-2.6843,7.1766
			c-1.9193,5.0904-3.2406,7.8999-3.9638,8.4284c-0.8432,0.8988-1.7889,1.3491-2.8373,1.3491H8.9534v-0.0695l4.7844-12.1001h5.9666
			l-2.9068,7.4687h4.1029c1.483,0,2.4061-0.3008,2.7677-0.904c0.259-0.186,1.2796-2.5504,3.0598-7.0932
			c0.4451-1.0014,0.6676-1.622,0.6676-1.8637v-0.306c0-0.4086-0.2973-0.6815-0.8901-0.8206H15.226
			C14.8644,8.7274,14.169,7.3088,13.1398,5H31.2066 M19.7044,12.7747h0.005 M31.3135,3h-0.1069H13.1398h-3.0813l1.2545,2.8143
			c1.4337,3.2161,1.9621,4.1322,2.2623,4.5709l0.2665,0.3895h-0.104h-1.3599l-0.5,1.2646L7.0935,24.1394l-0.1401,0.3544v0.381
			v0.0695v2h2h15.7581c1.5464,0,2.9901-0.644,4.1846-1.8645c0.7718-0.6428,1.83-2.1624,4.4745-9.1717
			c2.8266-6.7128,2.8263-7.3806,2.8263-7.9179V7.1001c0-1.0754-0.4655-3.6264-4.7771-4.0887L31.3135,3L31.3135,3z M19.7094,10.7747
			h0.005H19.7094L19.7094,10.7747z M22.4416,11.2559h2.5372c-0.0248,0.0566-0.0509,0.1159-0.0785,0.178l-0.0182,0.0409
			l-0.0163,0.0417c-1.7503,4.4666-2.4203,5.9355-2.6647,6.4141l-0.0357,0.0256l-0.0992,0.1655
			c-0.1507,0.0463-0.4986,0.1217-1.1658,0.1217h-1.1784l1.8461-4.7433L22.4416,11.2559L22.4416,11.2559z"/>
	</g>
	<g>
		<path class="st0" d="M43.5933,25.8887v-1.1904l0.0703-0.2471l2.5737-6.5039H42.001c-0.2842,0.6348-0.9204,2.1504-2.3472,5.752
			c-0.6147,1.5361-0.8037,1.8281-1.1348,2.0361l-0.2441,0.1533h-7.0044v-1.1924l0.0713-0.248
			c4.3599-10.915,5.6865-14.1196,6.1333-15.1377C35.582,5.4897,35.582,5.3701,35.582,5.0693v-1h18.2881
			c2.1885,0,3.1968,1.1582,3.6577,2.1299l0.0259,0.0552l0.0195,0.0586c0.1836,0.5537,0.2729,1.0205,0.2729,1.4268v0.3755
			c0,0.7271-0.3652,2.3906-3.2144,8.8594l-3.4868,8.9141H43.5933z M48.8257,11.7192c0.1011-0.2417,0.2578-0.6621,0.4863-1.3853
			l-4.2305-0.0322c-0.1177,0.2578-0.3027,0.6914-0.5889,1.4175H48.8257z"/>
		<path d="M53.87,5.0695c1.3439,0,2.2618,0.5198,2.7538,1.5577c0.1478,0.4451,0.2225,0.8154,0.2225,1.1127v0.3755
			c0,0.8988-1.0431,3.7187-3.1293,8.4562l-3.2545,8.3171h-5.8693v-0.0695l3.1154-7.872h-6.3143
			c-0.12,0.0643-1.0101,2.1923-2.6704,6.3839c-0.3894,0.9736-0.6346,1.4934-0.7371,1.5577h-5.7163v-0.0695
			c3.9586-9.9113,6.064-15.0852,6.3143-15.5216c-1.3351-2.6896-2.0027-4.0978-2.0027-4.2282H53.87 M43.0355,12.7191h6.3143
			c0.186,0,0.5285-0.8154,1.0292-2.4478V9.8957c-0.1947-0.3981-0.5146-0.5981-0.9597-0.5981h-4.8957
			C44.3933,9.2976,43.8978,10.4381,43.0355,12.7191 M53.87,3.0695H36.5821h-2v2c0,0.5236,0.0002,0.6473,1.7921,4.2715
			c-0.6205,1.4565-2.1172,5.1126-5.961,14.7364l-0.1427,0.3572v0.3846v0.0695v2h2h5.7163h0.5753l0.4874-0.3057
			c0.6438-0.4038,0.9313-1.0089,1.5314-2.5093c1.1043-2.788,1.7259-4.3033,2.0755-5.1266h2.1097l-2.0326,5.136l-0.1403,0.3546
			v0.3814v0.0695v2h2h5.8693h1.3651l0.4974-1.2712l3.2393-8.2783c2.8839-6.5522,3.282-8.3058,3.282-9.2238V7.7399
			c0-0.5155-0.1061-1.0856-0.3244-1.743l-0.0385-0.116L58.431,5.7705C57.6054,4.0287,55.9856,3.0695,53.87,3.0695L53.87,3.0695z"/>
	</g>
	<g>
		<path class="st0" d="M67.6895,25.9443l1.3755-7.707c-0.0464-0.2119-0.1045-0.2734-0.105-0.2744l-4.1826-0.002
			c-0.1987,0.4473-0.5791,1.3633-1.3027,3.2402c-0.7866,1.8438-1.3301,3.2012-1.6284,4.0684l-0.2324,0.6748h-7.5967V24.752
			l0.0718-0.249l5.0918-12.7144h10.9688c0.9268,0,1.458-0.1919,1.5786-0.5703l0.3213-0.9346h-7.2686
			c-0.7661,0-1.9438-0.0225-3.5347-0.0698l-0.6133-0.0181l-2.29-4.8608V4.1113l1-0.0698h17.3018
			c2.4063,0,3.4702,1.1084,3.939,2.0381l0.0396,0.0791l0.0254,0.0845c0.1294,0.4321,0.1948,0.8281,0.1948,1.1768v0.4453
			c0,0.5864-0.2661,1.7935-2.2397,6.2983l-0.0381,0.0874l-0.0542,0.0781c-0.4365,0.6338-1.1953,1.1396-2.3022,1.5303
			c0.209,0.3428,0.3315,0.709,0.3672,1.0967c0.0791,0.2383,0.0947,0.499,0.0947,0.7559l-0.0059,0.1064
			c-0.2988,2.7959-0.6045,5.2432-0.9092,7.2744l-0.1274,0.8516H67.6895z"/>
		<path d="M76.6446,5.0417c1.5299,0,2.5452,0.4955,3.0459,1.4882c0.1026,0.3425,0.153,0.6398,0.153,0.8901v0.4451
			c0,0.6485-0.718,2.6147-2.1558,5.8971c-0.4729,0.6867-1.5942,1.21-3.3658,1.5716h-0.1391
			c0.9371,0.5476,1.4047,1.1683,1.4047,1.8637c0.0556,0.0556,0.0835,0.2277,0.0835,0.5146c-0.2973,2.7816-0.5981,5.193-0.904,7.2323
			h-5.8832l1.1961-6.7038c-0.12-0.8536-0.5198-1.2796-1.1961-1.2796h-4.701c-0.1304,0.0834-0.6763,1.3769-1.6412,3.8804
			c-0.7876,1.8446-1.3352,3.2128-1.6412,4.1029h-5.8832v-0.0695l4.8401-12.0862h10.2921c1.4186,0,2.2618-0.4225,2.5313-1.2656
			l0.459-1.3352v-0.153c0-0.4086-0.3251-0.6589-0.9736-0.751h-7.3853c-0.7597,0-1.928-0.0226-3.5049-0.0695l-1.9332-4.1029V5.0417
			h0.0001H76.6446 M76.6446,3.0417H59.3428h-1.9971l-0.0029,1.9971l-0.0001,0.0697l-0.0006,0.4491l0.1914,0.4063l1.9332,4.1029
			l0.3401,0.7218h-1.303l-0.5032,1.2565l-4.8401,12.0862l-0.1433,0.3579v0.3856v0.0695v2h2h5.8832h1.4273l0.464-1.3498
			c0.2877-0.837,0.8224-2.1719,1.5892-3.9678l0.014-0.0328l0.0128-0.0333c0.4885-1.2675,0.8142-2.0798,1.0302-2.5997h2.4818
			l-1.0049,5.6321l-0.4195,2.3513h2.3884h5.8832h1.7224l0.2555-1.7033c0.3066-2.0437,0.6144-4.5053,0.9148-7.3164l0.0113-0.106
			v-0.1066c0-0.2075,0-0.5682-0.1116-0.9621c-0.0141-0.1115-0.0341-0.2265-0.0611-0.3441c0.8174-0.4056,1.4193-0.9033,1.8366-1.5093
			l0.1082-0.1571l0.0766-0.1748c2.1443-4.8952,2.3238-6.0249,2.3238-6.6995V7.42c0-0.4525-0.0776-0.9314-0.2371-1.464
			l-0.0507-0.1691l-0.0795-0.1576C80.8808,4.4488,79.5593,3.0417,76.6446,3.0417L76.6446,3.0417z"/>
	</g>
	<g>
		<path class="st0" d="M92.3042,25.9023l-0.2476-0.1602c-0.2627-0.1689-0.4424-0.2852-4.3247-6.6699
			c-0.3779,0.915-0.958,2.374-1.8481,4.6992c-0.7935,1.7725-0.9536,2.1309-1.6714,2.1309h-6.7998v-1
			c0-0.3584,0-0.4277,8.0151-20.2085l0.2529-0.6245h7.543v1.1045l-0.0215,0.1719c-0.0264,0.125-0.0669,0.3164-1.5562,4.0293
			c1.2813-1.2017,3.0269-2.8257,5.4043-5.0376l0.2881-0.2681h8.5137v2.1528h-0.6572c-0.5327,0.4663-2.2085,2.0225-7.2153,6.8413
			l-0.1089,0.105l-0.1348,0.0679c-0.0205,0.0244-0.5171,0.436-3.0688,2.9287l5.2461,8.3809v1.2871l-1,0.0693H92.3042z"/>
		<path d="M104.8522,5.0694v0.153c-0.1113,0-2.6339,2.3731-7.5661,7.121c-0.2034,0.1026-1.4934,1.3161-3.8665,3.644v0.0695
			l5.4937,8.7761v0.0695H92.599c-0.186-0.12-1.8446-2.7677-4.9791-7.9416c-0.186,0.1391-1.0761,2.2896-2.6704,6.4534
			c-0.4451,0.9927-0.6902,1.4882-0.7371,1.4882h-5.7997V24.833c0-0.1113,2.6478-6.6985,7.9416-19.7636h5.8693v0.0001V5.139
			c-0.0469,0.2225-1.1074,2.8981-3.185,8.025h0.0695c0-0.0469,2.8738-2.7451,8.6231-8.0946H104.8522 M85.0068,3.0694l-0.5061,1.249
			c-8.088,19.9611-8.088,19.9611-8.088,20.5147v0.0695v2h2h5.7997c1.3649,0,1.765-0.8923,2.5621-2.6699l0.0228-0.051l0.02-0.0521
			c0.4391-1.1469,0.8008-2.0776,1.0985-2.8328c2.9934,4.8956,3.1703,5.0099,3.599,5.2865l0.4951,0.3194h0.5892h6.3143h2v-2V24.833
			v-0.5744l-0.3048-0.4868l-4.6657-7.4534c1.6272-1.5819,2.2004-2.0992,2.3976-2.2668l0.1156-0.0583l0.2172-0.209
			c4.428-4.2625,6.1987-5.9211,6.9044-6.5619h1.2746v-2v-0.153v-2h-2h-7.121h-0.7865l-0.5758,0.5358
			c-0.7933,0.7382-1.5321,1.426-2.216,2.0633c0.0135-0.0492,0.0207-0.083,0.0278-0.117l0.043-0.204V5.139V5.0695v-2l-2,0
			l-5.8693-0.0001L85.0068,3.0694L85.0068,3.0694z"/>
	</g>
	<g>
		<path class="st0" d="M111.4985,25.9023c-1.562,0-2.7031-0.75-3.3003-2.1699c-0.1431-0.2637-0.231-0.6846-0.231-1.208v-0.5986
			c0-0.6787,0.3188-2.1035,2.6841-7.5205c1.4282-3.8682,2.5181-6.4663,3.3115-7.8892l0.0317-0.0566l0.0381-0.0518
			c1.1494-1.5518,2.4683-2.3384,3.9194-2.3384h13.9346V5.252l-0.0645,0.2407c-1.7827,4.7148-1.832,4.8047-2.6465,4.8047h-7.9556
			c-0.2754,0-1.1138,0-1.7056,2.1704l-0.0166,0.061l-0.0244,0.0581c-1.5005,3.627-2.29,5.5859-2.7031,6.6426h7.5244l0.2729,0.5645
			c1.7437,3.5996,2.0933,4.458,2.2046,4.791l0.4409,1.3174H111.4985z"/>
		<path d="M130.8866,5.0695V5.139c-1.0483,2.7729-1.6186,4.1586-1.7107,4.1586h-7.9555c-1.2517,0-2.1419,0.9684-2.6704,2.9068
			c-2.1332,5.1547-3.1989,7.8303-3.1989,8.025h8.3171c1.2796,2.6426,1.9976,4.2003,2.1558,4.6732h-14.3254
			c-1.1492,0-1.9419-0.5198-2.3783-1.5577c-0.1026-0.1947-0.153-0.4677-0.153-0.8206v-0.5981c0-0.7789,0.8675-3.1519,2.6008-7.121
			c1.4186-3.8387,2.5087-6.4395,3.2684-7.8025c0.9545-1.2882,1.9942-1.9332,3.1155-1.9332H130.8866 M132.8866,3.0695h-2H117.952
			c-1.7852,0-3.3741,0.9227-4.7225,2.7425l-0.077,0.1039l-0.063,0.113c-0.8157,1.4635-1.9207,4.0902-3.3774,8.0288
			c-2.532,5.8031-2.7448,7.1048-2.7448,7.8684v0.5981c0,0.6477,0.1107,1.1929,0.338,1.6626
			c0.7539,1.7269,2.2783,2.7157,4.1933,2.7157h14.3254h2.778l-0.8813-2.6345c-0.1304-0.3897-0.5042-1.3-2.2524-4.9103
			l-0.5464-1.1284h-1.2537h-5.4244c0.4624-1.1493,1.1456-2.8231,2.1542-5.2602l0.0483-0.1168l0.0332-0.1219
			c0.2907-1.0662,0.6214-1.3984,0.694-1.429l8.0023-0.0039c1.4089,0,1.8643-1.1068,2.3463-2.2785
			c0.2915-0.7085,0.707-1.776,1.2351-3.1728l0.1292-0.3418V5.139V5.0695V3.0695L132.8866,3.0695z"/>
	</g>
	<g>
		<path class="st0" d="M132.0703,25.9443V24.75l0.0728-0.249c1.4175-3.5137,2.1802-5.4326,2.5845-6.4707h-0.8364
			c-1.7041,0-2.9678-0.9238-3.5581-2.6011l-0.0566-0.1611v-1.2139c0-0.6211,0.2969-2.0239,2.6128-7.4053
			c0.4653-1.1641,0.6191-1.5918,0.6694-1.7451v-0.876h8.4487l-0.5552,1.3745c-1.7529,4.3398-2.2012,5.6133-2.3101,5.9854
			c0.0732,0.0132,0.1826,0.0254,0.3398,0.0254h2.6147c1.4136,0,1.7192-0.5259,1.8193-0.6987
			c0.5815-1.2285,1.4219-3.2847,2.4604-6.0391l0.2437-0.6475h8.1055l-0.5112,1.3535c-3.4468,9.126-4.3945,10.3154-4.8296,10.7046
			c-1.0415,1.29-2.417,1.9443-4.0894,1.9443h-2.3701c-0.3237,0.7207-1.0991,2.5703-2.958,7.2813l-0.2495,0.6328H132.0703z"/>
		<path d="M153.2788,5.0277h0.005 M153.2788,5.0277c-2.3922,6.3334-3.9308,9.7862-4.6175,10.3616
			c-0.8536,1.0935-1.975,1.6412-3.3658,1.6412h-2.9763c-0.1391,0.0834-1.2326,2.7208-3.2823,7.9138h-5.9666v-0.0695
			c2.0393-5.0539,3.0598-7.6408,3.0598-7.7608v-0.0834h-2.2392c-1.2883,0-2.161-0.645-2.6147-1.9332v-1.0431
			c0-0.751,0.8432-3.0876,2.5313-7.0097c0.5006-1.2518,0.7509-1.9246,0.7509-2.0168h5.9666
			c-1.5021,3.7187-2.3001,5.8084-2.3922,6.2726v0.2225c0,0.5928,0.4503,0.8901,1.3491,0.8901h2.6147
			c1.3265,0,2.2201-0.3981,2.6843-1.1961c0.6398-1.3439,1.483-3.4075,2.5313-6.1892H153.2788 M156.1721,3.0277h-2.8933h-5.9666
			h-1.3836l-0.4879,1.2947c-0.9943,2.6385-1.8036,4.6258-2.407,5.9109c-0.0833,0.0772-0.3814,0.1797-0.9371,0.1797h-1.5487
			c0.3282-0.8676,0.8862-2.2958,1.8315-4.6361l1.1104-2.7491h-2.9649h-5.9666h-2v1.707c-0.0756,0.21-0.241,0.6492-0.5983,1.5433
			c-2.4762,5.7553-2.6839,7.0319-2.6839,7.7763v1.0431v0.3419l0.1136,0.3225c0.6592,1.8716,2.056,3.0241,3.8831,3.234
			c-0.4474,1.1276-1.1021,2.7632-2.0573,5.1306l-0.1453,0.3601v0.3883v0.0695v2h2h5.9666h1.3607l0.4996-1.2657
			c1.4906-3.7764,2.2726-5.6848,2.6828-6.6481h1.7155c1.9327,0,3.5922-0.7766,4.8123-2.2489
			c0.5855-0.5404,1.6069-1.9529,5.042-11.0473L156.1721,3.0277L156.1721,3.0277z M153.2838,3.0277h0.005H153.2838L153.2838,3.0277z
			 M153.2788,7.0277h0.005H153.2788L153.2788,7.0277z"/>
	</g>
	<g>
		<path class="st0" d="M152.7559,25.9023c-1.563,0-2.7041-0.751-3.3003-2.1699c-0.1436-0.2637-0.2314-0.6846-0.2314-1.208v-0.5986
			c0-0.6787,0.3188-2.1035,2.6846-7.521c1.4263-3.8652,2.5166-6.4629,3.3115-7.8887l0.0317-0.0566l0.0381-0.0518
			c1.1489-1.5518,2.4673-2.3384,3.9189-2.3384h13.9346V5.252l-0.0645,0.2407c-1.7827,4.7148-1.832,4.8047-2.646,4.8047h-7.9556
			c-0.2754,0-1.1143,0-1.7056,2.1704l-0.0166,0.0605l-0.0244,0.0586c-1.501,3.627-2.2905,5.5859-2.7036,6.6426h7.5249l0.2729,0.5645
			c1.7437,3.6016,2.0933,4.459,2.2041,4.791l0.4409,1.3174H152.7559z"/>
		<path d="M172.1436,5.0695V5.139c-1.0483,2.7729-1.6186,4.1586-1.7107,4.1586h-7.9555c-1.2517,0-2.1419,0.9684-2.6704,2.9068
			c-2.1332,5.1547-3.1989,7.8303-3.1989,8.025h8.3171c1.2796,2.6426,1.9976,4.2003,2.1558,4.6732h-14.3254
			c-1.1492,0-1.9419-0.5198-2.3783-1.5577c-0.1026-0.1947-0.153-0.4677-0.153-0.8206v-0.5981c0-0.7789,0.8675-3.1519,2.6008-7.121
			c1.4186-3.8387,2.5087-6.4395,3.2684-7.8025c0.9545-1.2882,1.9941-1.9332,3.1155-1.9332H172.1436 M174.1436,3.0695h-2H159.209
			c-1.7852,0-3.3741,0.9227-4.7224,2.7426l-0.077,0.1039l-0.063,0.113c-0.8157,1.4634-1.9207,4.0902-3.3774,8.0288
			c-2.532,5.8031-2.7448,7.1048-2.7448,7.8684v0.5981c0,0.6477,0.1107,1.1929,0.338,1.6626
			c0.754,1.7269,2.2783,2.7157,4.1933,2.7157h14.3254h2.778l-0.8813-2.6345c-0.1303-0.3896-0.5042-1.2999-2.2524-4.9103
			l-0.5464-1.1284h-1.2537h-5.4243c0.4624-1.1493,1.1456-2.8231,2.1542-5.2602l0.0483-0.1168l0.0332-0.1219
			c0.2907-1.0662,0.6214-1.3984,0.694-1.429l8.0023-0.0039c1.4089,0,1.8643-1.1068,2.3464-2.2785
			c0.2915-0.7085,0.707-1.776,1.2351-3.1728l0.1292-0.3418V5.139V5.0695V3.0695L174.1436,3.0695z"/>
	</g>
	<g>
		<path class="st0" d="M168.9131,26v-1c0-0.3604,0-0.4473,8.0703-20.3481l0.2534-0.624h7.5845v1.1919l-0.0708,0.2476
			l-5.5049,13.8179h8.2739v1.2021l-0.0791,0.2695c-0.9834,2.332-1.6021,3.8672-1.8374,4.5635L185.373,26H168.9131z"/>
		<path d="M183.8213,5.0278v0.0695l-6.0501,15.1878h8.7483v0.0834c-1.0014,2.3731-1.622,3.9169-1.8637,4.6314h-14.7427v-0.0695
			c0-0.12,2.6652-6.7542,7.9972-19.9026C177.9103,5.0278,183.8213,5.0278,183.8213,5.0278 M185.8213,3.0273l-2.0007,0.0005
			l-5.9102,0h-1.3471l-0.5063,1.2484c-8.1438,20.0821-8.1438,20.0929-8.1438,20.6542v0.0695v2h2h14.7427h1.4348l0.4598-1.3591
			c0.1565-0.4626,0.5978-1.6179,1.8118-4.4947l0.1573-0.3729v-0.4047v-0.0834v-2h-2h-5.7988l4.9586-12.4477l0.142-0.3565V5.0973
			V5.0278V3.0273L185.8213,3.0273z"/>
	</g>
	<g>
		<path class="st0" d="M185.9521,25.9443v-1.1289l0.0327-0.1953c0.0513-0.1934,0.1704-0.6465,6.146-15.3022
			c-1.8535-3.8433-1.8535-3.9287-1.8535-4.2207v-1l1-0.0693h21.9854l-0.541,1.3677c-1.082,2.7354-1.46,3.7261-1.5703,4.0381v0.8501
			h-11.291c-0.1309,0.2832-0.3301,0.7476-0.6299,1.5049h8.1104v1.1904l-0.0703,0.2466c-1.0313,2.6099-1.3311,3.4141-1.418,3.6611
			v0.8516h-9.0156c-0.1201,0.2695-0.3115,0.7266-0.6104,1.5049h9.1934l2.5186,5.4102v1.2217l-1,0.0693H185.9521z"/>
		<path d="M211.7924,5.0278c-1.0935,2.7625-1.6412,4.1812-1.6412,4.2559h-10.8901c-0.2312,0.3251-0.7284,1.4934-1.4882,3.5049
			h8.5675v0.0695c-0.9927,2.5122-1.4882,3.8056-1.4882,3.8804h-8.5814c-0.1304,0-0.6259,1.1683-1.4882,3.5049h10l2.1558,4.6314
			v0.0695h-19.9861v-0.0695c0.1026-0.3894,2.1923-5.5859,6.2726-15.5911c-1.2987-2.6895-1.9471-4.0838-1.9471-4.1864V5.0278h0
			H211.7924 M214.7351,3.0278h-2.9427h-20.5146h-1.9997l-0.0003,1.9997l0,0.0695c0,0.5296,0.0001,0.6041,1.7594,4.2549
			c-5.8336,14.3101-5.9493,14.7492-6.0189,15.0133l-0.066,0.2505v0.2591v0.0695v2h2h19.9861h2v-2v-0.0695v-0.4427l-0.1868-0.4013
			l-2.1558-4.6314l-0.3076-0.6609h0.5641v-1.677c0.1308-0.3552,0.4699-1.2455,1.3483-3.4684l0.14-0.3542v-0.3808v-0.0695v-1.5049
			h1.8108h2V9.6102c0.1425-0.3847,0.5178-1.363,1.5008-3.8463L214.7351,3.0278L214.7351,3.0278z M211.7924,7.0278h0.005H211.7924
			L211.7924,7.0278z"/>
	</g>
	<g>
		<path class="st0" d="M215.2529,25.9443v-1.1865l0.0674-0.2441l2.043-5.2705h10.2949c0.3076,0,0.5195-0.0234,0.6611-0.0498
			c-0.1758-0.2188-0.5713-0.6621-1.4375-1.3779c-3.9326-3.6904-4.8604-4.751-5.0801-5.2866c-0.6348-0.959-0.957-1.9468-0.957-2.939
			V9.437c0-3.4795,2.0244-5.3955,5.7012-5.3955h13.8232v1.1982l-0.0752,0.2529c-1.1689,2.8325-1.4834,3.6714-1.5664,3.9185v0.8726
			h-8.6094c0.2451,0.27,0.6846,0.7031,1.4678,1.3662c3.4043,3.1733,4.167,4.5073,4.2861,5.3501
			c0.2646,0.5986,0.3936,1.3945,0.3936,2.4229c0,3.3887-1.6592,5.5576-4.7969,6.2734c-0.6494,0.1631-1.4092,0.248-2.2393,0.248
			H215.2529z"/>
		<path d="M239.3689,5.0417v0.0695c-1.0935,2.6513-1.6412,4.0421-1.6412,4.1725h-8.1224c-0.2782,0-0.5285,0.1756-0.7511,0.5285
			v0.2921c0,0.3616,0.6954,1.1318,2.0862,2.3088c2.6339,2.4565,3.9499,4.0751,3.9499,4.854
			c0.2504,0.4642,0.3755,1.1822,0.3755,2.1558c0,2.9207-1.3404,4.6871-4.0195,5.299c-0.5928,0.1478-1.2656,0.2225-2.0167,0.2225
			h-12.9763v-0.0695l1.7942-4.6314h9.6106c1.1961,0,1.7942-0.2973,1.7942-0.8901c0-0.4729-0.645-1.243-1.9332-2.3088
			c-3.1902-2.9955-4.7844-4.6366-4.7844-4.9235c-0.5928-0.8432-0.8901-1.6881-0.8901-2.5313v-0.153
			c0-2.9295,1.5664-4.3951,4.7009-4.3951H239.3689 M241.3689,3.0417h-2h-12.8234c-4.2585,0-6.7009,2.3309-6.7009,6.3951v0.153
			c0,1.1286,0.3389,2.2406,1.0081,3.3112c0.2973,0.7259,1.3432,1.8804,5.0217,5.3425h-7.827h-1.37l-0.4949,1.2775l-1.7942,4.6314
			l-0.1351,0.3486v0.3739v0.0695v2h2h12.9763c0.909,0,1.7503-0.0948,2.5005-0.2819c3.556-0.8118,5.5357-3.3861,5.5357-7.2396
			c0-1.1026-0.14-1.9922-0.4266-2.7023c-0.2146-1.1277-1.1745-2.5931-4.1799-5.4369h5.0685h2V9.5821
			c0.1297-0.3559,0.4906-1.285,1.4901-3.7083l0.1511-0.3663V5.1112V5.0417V3.0417L241.3689,3.0417z"/>
	</g>
	<g>
		<path class="st0" d="M236.0566,25.9443v-1.1289l0.0332-0.1953c0.0508-0.1934,0.1699-0.6465,6.1455-15.3022
			c-1.8535-3.8433-1.8535-3.9287-1.8535-4.2207v-1l1-0.0693h21.9863l-0.542,1.3682c-1.1182,2.8252-1.4688,3.749-1.5703,4.0371
			v0.8506h-11.291c-0.1309,0.2827-0.3301,0.7471-0.6299,1.5049h8.1094v1.1904l-0.0703,0.2461
			c-1.0215,2.5879-1.3281,3.4048-1.418,3.6616v0.8516h-9.0146c-0.1201,0.2695-0.3115,0.7266-0.6104,1.5049h9.1934l2.5186,5.4102
			v1.2217l-1,0.0693H236.0566z"/>
		<path d="M261.8967,5.0278c-1.0935,2.7625-1.6412,4.1812-1.6412,4.2559h-10.8901c-0.2312,0.3251-0.7284,1.4934-1.4882,3.5049
			h8.5675v0.0695c-0.9927,2.5122-1.4882,3.8056-1.4882,3.8804h-8.5814c-0.1304,0-0.6259,1.1683-1.4882,3.5049h10l2.1558,4.6314
			v0.0695h-19.9861v-0.0695c0.1026-0.3894,2.1923-5.5859,6.2726-15.5911c-1.2987-2.6895-1.9471-4.0838-1.9471-4.1864V5.0278h0
			H261.8967 M264.8394,3.0278h-2.9427h-20.5146h-1.9997l-0.0003,1.9997l0,0.0695c0,0.5296,0.0001,0.6041,1.7594,4.2549
			c-5.8336,14.3101-5.9493,14.7492-6.0189,15.0133l-0.066,0.2505v0.2591v0.0695v2h2h19.9861h2v-2v-0.0695v-0.4427l-0.1868-0.4013
			l-2.1558-4.6314l-0.3076-0.6609h0.5641v-1.677c0.1307-0.3552,0.4699-1.2455,1.3483-3.4684l0.14-0.3542v-0.3808v-0.0695v-1.5049
			h1.8108h2V9.6102c0.1425-0.3847,0.5179-1.363,1.5008-3.8463L264.8394,3.0278L264.8394,3.0278z M261.8967,7.0278h0.005H261.8967
			L261.8967,7.0278z"/>
	</g>
	<g>
		<path class="st0" d="M272.3262,25.9443l1.375-7.707c-0.0459-0.2119-0.1035-0.2734-0.1045-0.2734l-4.1816-0.0029
			c-0.1992,0.4473-0.5801,1.3633-1.3047,3.2412c-0.7891,1.8506-1.332,3.208-1.6279,4.0674l-0.2314,0.6748h-7.5977V24.752
			l0.0713-0.249l5.0928-12.7144h10.9688c0.6367,0,1.4277-0.0991,1.5791-0.5703l0.3213-0.9346h-7.2695
			c-0.7666,0-1.9443-0.0225-3.5342-0.0698l-0.6143-0.0181l-2.2891-4.8608V4.1113l1-0.0698h17.3018
			c2.4053,0,3.4697,1.1079,3.9385,2.0376l0.04,0.0791l0.0254,0.085c0.1318,0.4395,0.1953,0.8242,0.1953,1.1768v0.4453
			c0,0.585-0.2666,1.7905-2.2402,6.2983l-0.0381,0.0869l-0.0547,0.0786c-0.4355,0.6338-1.1943,1.1396-2.3008,1.5303
			c0.209,0.3438,0.3311,0.71,0.3672,1.0977c0.0781,0.2383,0.0938,0.499,0.0938,0.7549l-0.0059,0.1064
			c-0.2959,2.7764-0.6025,5.2236-0.9092,7.2744l-0.1279,0.8516H272.3262z"/>
		<path d="M281.2813,5.0417c1.5299,0,2.5452,0.4955,3.0459,1.4882c0.1026,0.3425,0.153,0.6398,0.153,0.8901v0.4451
			c0,0.6485-0.718,2.6147-2.1558,5.8971c-0.4729,0.6867-1.5942,1.21-3.3658,1.5716h-0.1391
			c0.937,0.5476,1.4047,1.1683,1.4047,1.8637c0.0556,0.0556,0.0834,0.2277,0.0834,0.5146c-0.2973,2.7816-0.5981,5.193-0.904,7.2323
			h-5.8832l1.1961-6.7038c-0.12-0.8536-0.5198-1.2796-1.1961-1.2796h-4.701c-0.1304,0.0834-0.6763,1.3769-1.6412,3.8804
			c-0.7876,1.8446-1.3352,3.2128-1.6412,4.1029h-5.8832v-0.0695l4.84-12.0862h10.2921c1.4186,0,2.2618-0.4225,2.5313-1.2656
			l0.459-1.3352v-0.153c0-0.4086-0.3251-0.6589-0.9736-0.751h-7.3853c-0.7597,0-1.928-0.0226-3.5049-0.0695l-1.9332-4.1029V5.0417
			h0.0003H281.2813 M281.2813,3.0417h-17.3018h-1.992l-0.0079,1.992l-0.0003,0.0697l-0.0018,0.4518l0.1926,0.4087l1.9332,4.1029
			l0.3401,0.7218h-1.303l-0.5032,1.2565l-4.84,12.0862l-0.1433,0.3579v0.3856v0.0695v2h2h5.8832h1.4273l0.4641-1.3498
			c0.2877-0.8369,0.8224-2.1718,1.5892-3.9678l0.014-0.0328l0.0128-0.0333c0.4885-1.2675,0.8143-2.0798,1.0302-2.5997h2.4818
			l-1.0049,5.6321l-0.4195,2.3513h2.3884h5.8832h1.7224l0.2555-1.7033c0.3066-2.0441,0.6144-4.5057,0.9148-7.3164l0.0113-0.106
			v-0.1066c0-0.2074,0-0.5679-0.1115-0.9617c-0.0141-0.1116-0.0341-0.2268-0.0612-0.3445c0.8174-0.4056,1.4193-0.9033,1.8367-1.5094
			l0.1082-0.1571l0.0765-0.1748c2.1443-4.8952,2.3239-6.0249,2.3239-6.6996V7.42c0-0.4525-0.0776-0.9313-0.2371-1.464
			l-0.0507-0.1691l-0.0795-0.1576C285.5175,4.4488,284.196,3.0417,281.2813,3.0417L281.2813,3.0417z"/>
	</g>
	<g>
		<path class="st0" d="M293.1377,25.9443c-2.4863,0-6.0088-0.0225-10.5664-0.0693l-0.9893-0.0098V24.875
			c0-0.377-0.001-0.5,6.2168-15.5693c-1.9053-3.8843-1.9053-3.981-1.9053-4.2778v-1h11.9883l-6.0498,15.1597h0.6387
			c1.5664,0,2.5527-0.5283,3.1055-1.6631l5.5127-13.4966h7.458v1c0,0.2983,0,0.5142-3.2588,8.4736
			c-1.6797,4.3296-2.8965,7.105-3.7129,8.4663c-1.7832,2.6533-4.1641,3.9766-7.1025,3.9766H293.1377z"/>
		<path d="M307.5469,5.0278h0.005 M307.5469,5.0278c0,0.2138-1.0622,2.912-3.185,8.0946c-1.6499,4.2559-2.8651,7.0323-3.644,8.331
			c-1.5664,2.3279-3.6492,3.491-6.2448,3.491h-1.3352c-2.4843,0-6.0031-0.0226-10.5563-0.0695v-0.0835
			c0-0.1478,2.1054-5.3216,6.3143-15.5216c-1.335-2.7173-2.0027-4.1307-2.0027-4.242h9.5132l-6.0222,15.0904v0.0695h2.0862
			c1.9471,0,3.2823-0.7424,4.0056-2.2253l5.2851-12.9346H307.5469 M309.5469,3.0278h-2h-5.7858h-1.3433l-0.5081,1.2435
			l-5.257,12.8657c-0.2061,0.402-0.5367,0.8007-1.3119,0.9683l4.9231-12.3362l1.094-2.7413h-2.9515h-9.5132h-2v2
			c0,0.5341,0,0.6204,1.8098,4.3132c-6.1214,14.837-6.1214,14.9031-6.1214,15.4504v0.0835v1.9795l1.9794,0.0204
			c4.484,0.0462,8.0426,0.0696,10.5769,0.0696h1.3352c3.2453,0,5.9785-1.5127,7.9041-4.3745l0.0291-0.0432l0.0268-0.0447
			c0.8475-1.4131,2.0884-4.2382,3.7936-8.6368c3.3202-8.105,3.3202-8.299,3.3202-8.8175V3.0278L309.5469,3.0278z M307.5519,3.0278
			h0.005H307.5519L307.5519,3.0278z M307.5469,7.0278h0.005H307.5469L307.5469,7.0278z"/>
	</g>
	<g>
		<path class="st0" d="M303.2227,25.9443v-1c0-0.3643,0-0.4434,8.0566-20.2925l0.2539-0.624h7.5703v1.1836l-0.0654,0.2412
			c-0.6484,1.7051-3.2617,8.2036-7.9912,19.8677l-0.2529,0.624H303.2227z"/>
		<path d="M318.1033,5.0278v0.0695c-0.6485,1.7055-3.3102,8.3223-7.9833,19.847h-5.8971v-0.0695c0-0.12,2.6617-6.7368,7.9833-19.847
			H318.1033 M320.1033,3.0278h-2h-5.8971h-1.3466l-0.5065,1.2478c-8.1302,20.0293-8.1302,20.04-8.1302,20.5992v0.0695v2h2h5.8971
			h1.3472l0.5062-1.2485c4.7254-11.6538,7.342-18.1591,7.9993-19.8877l0.1306-0.3434V5.0973V5.0278V3.0278L320.1033,3.0278z"/>
	</g>
	<g>
		<path class="st0" d="M318.9502,25.9023c-1.5625,0-2.7041-0.75-3.3008-2.1699c-0.1426-0.2627-0.2305-0.6836-0.2305-1.208v-0.5986
			c0-0.6396,0.3047-2.0732,2.6846-7.521c1.4277-3.8677,2.5176-6.4658,3.3115-7.8887l0.0313-0.0566l0.0381-0.0518
			c1.1494-1.5518,2.4678-2.3384,3.9189-2.3384h13.9346V5.252l-0.0645,0.2407c-1.7822,4.7148-1.8311,4.8047-2.6465,4.8047h-7.9551
			c-0.2754,0-1.1133,0-1.7051,2.1704l-0.0166,0.061l-0.0244,0.0581c-1.501,3.627-2.291,5.5859-2.7041,6.6426h7.5254l0.2734,0.5645
			c1.7422,3.5986,2.0918,4.458,2.2031,4.791l0.4414,1.3174H318.9502z"/>
		<path d="M338.338,5.0695V5.139c-1.0483,2.7729-1.6186,4.1586-1.7107,4.1586h-7.9555c-1.2517,0-2.1418,0.9684-2.6703,2.9068
			c-2.1332,5.1547-3.1989,7.8303-3.1989,8.025h8.3171c1.2796,2.6426,1.9976,4.2003,2.1558,4.6732H318.95
			c-1.1492,0-1.9419-0.5198-2.3783-1.5577c-0.1026-0.1947-0.153-0.4677-0.153-0.8206v-0.5981c0-0.7789,0.8675-3.1519,2.6008-7.121
			c1.4186-3.8387,2.5087-6.4395,3.2684-7.8025c0.9544-1.2882,1.9941-1.9332,3.1155-1.9332H338.338 M340.338,3.0695h-2h-12.9346
			c-1.7853,0-3.3742,0.9227-4.7225,2.7426l-0.077,0.1039l-0.063,0.113c-0.8156,1.4634-1.9207,4.0902-3.3774,8.0288
			c-2.532,5.8031-2.7448,7.1048-2.7448,7.8684v0.5981c0,0.6477,0.1107,1.1929,0.338,1.6627
			c0.7539,1.7269,2.2783,2.7156,4.1933,2.7156h14.3255h2.778l-0.8813-2.6345c-0.1304-0.3897-0.5042-1.2999-2.2524-4.9103
			l-0.5464-1.1284h-1.2537h-5.4244c0.4624-1.1493,1.1456-2.8231,2.1542-5.2602l0.0483-0.1168l0.0332-0.1219
			c0.2906-1.066,0.6213-1.3984,0.694-1.429l8.0023-0.0039c1.409,0,1.8643-1.1068,2.3464-2.2785
			c0.2914-0.7084,0.707-1.7759,1.2351-3.1728l0.1292-0.3418V5.139V5.0695V3.0695L340.338,3.0695z"/>
	</g>
	<g>
		<path class="st0" d="M335.2061,25.9443v-1.1289l0.0332-0.1953c0.0508-0.1943,0.1709-0.6494,6.1465-15.3022
			c-1.8535-3.8433-1.8535-3.9287-1.8535-4.2207v-1l1-0.0693h21.9863l-0.542,1.3682c-1.1191,2.8267-1.4697,3.7505-1.5713,4.0376
			v0.8501h-11.29c-0.1309,0.2827-0.3301,0.7471-0.6299,1.5049h8.1094v1.1904l-0.0703,0.2466
			c-1.0313,2.6099-1.3311,3.4141-1.418,3.6611v0.8516h-9.0146c-0.1201,0.2686-0.3115,0.7266-0.6104,1.5049h9.1934l2.5176,5.4102
			v1.2217l-1,0.0693H335.2061z"/>
		<path d="M361.0466,5.0278c-1.0935,2.7625-1.6412,4.1812-1.6412,4.2559h-10.8901c-0.2312,0.3251-0.7284,1.4934-1.4882,3.5049
			h8.5674v0.0695c-0.9927,2.5122-1.4882,3.8056-1.4882,3.8804h-8.5814c-0.1304,0-0.6259,1.1683-1.4882,3.5049h10l2.1558,4.6314
			v0.0695h-19.9861v-0.0695c0.1026-0.3894,2.1923-5.5859,6.2726-15.5911c-1.2987-2.6895-1.9471-4.0838-1.9471-4.1864V5.0278h0.0001
			H361.0466 M363.9893,3.0278h-2.9427H340.532h-1.9974l-0.0026,1.9974l-0.0001,0.0695c0,0.5317,0.0001,0.6063,1.7594,4.2572
			c-5.8336,14.31-5.9493,14.7491-6.0189,15.0133l-0.066,0.2505v0.2591v0.0695v2h2h19.9861h2v-2v-0.0695v-0.4427l-0.1868-0.4013
			l-2.1558-4.6314l-0.3076-0.6609h0.564v-1.6771c0.1307-0.3552,0.4699-1.2455,1.3482-3.4683l0.14-0.3542v-0.3808v-0.0695v-1.5049
			h1.8109h2V9.6102c0.1425-0.3847,0.5179-1.363,1.5008-3.8463L363.9893,3.0278L363.9893,3.0278z M361.0466,7.0278h0.005H361.0466
			L361.0466,7.0278z"/>
	</g>
</g>
</svg>
